<svg width="25" height="23" viewBox="0 0 25 23" fill="none" xmlns="http://www.w3.org/2000/svg">
<g clip-path="url(#clip0)">
<path d="M9.25457 16.2039C8.86616 16.2039 8.55133 16.5048 8.55133 16.8759V19.6087C8.55133 19.9798 8.86621 20.2807 9.25457 20.2807C9.64293 20.2807 9.95781 19.9798 9.95781 19.6087V16.8759C9.95786 16.5048 9.64298 16.2039 9.25457 16.2039Z" fill="#9B5900"/>
<path d="M12.0676 16.2039C11.6792 16.2039 11.3643 16.5048 11.3643 16.8759V19.6087C11.3643 19.9798 11.6792 20.2807 12.0676 20.2807C12.4559 20.2807 12.7708 19.9798 12.7708 19.6087V16.8759C12.7709 16.5048 12.456 16.2039 12.0676 16.2039Z" fill="#9B5900"/>
<path d="M14.8805 16.2039C14.4921 16.2039 14.1773 16.5048 14.1773 16.8759V19.6087C14.1773 19.9798 14.4922 20.2807 14.8805 20.2807C15.2689 20.2807 15.5838 19.9798 15.5838 19.6087V16.8759C15.5838 16.5048 15.269 16.2039 14.8805 16.2039Z" fill="#9B5900"/>
<path d="M17.7405 16.2039C17.3521 16.2039 17.0372 16.5048 17.0372 16.8759V19.6087C17.0372 19.9798 17.3521 20.2807 17.7405 20.2807C18.1288 20.2807 18.4437 19.9798 18.4437 19.6087V16.8759C18.4437 16.5048 18.1288 16.2039 17.7405 16.2039Z" fill="#9B5900"/>
<path d="M24.0697 3.43703C24.0697 3.06589 23.7549 2.76505 23.3665 2.76505C21.1328 2.76505 19.068 3.90162 17.9341 5.70833C17.4322 5.54306 16.8939 5.45308 16.334 5.45308C15.5871 5.45308 14.8448 5.61557 14.1774 5.91461V2.04823C14.1774 0.936594 13.2309 0.0322266 12.0676 0.0322266C10.9043 0.0322266 9.95782 0.936594 9.95782 2.04823V8.1081L8.84812 6.36172C8.35516 5.57226 7.50581 5.02642 6.52774 4.90337L5.56401 2.61815C5.03984 1.37521 3.41866 0.957303 2.31135 1.78077C1.76024 2.19063 1.36887 2.48173 0.814563 2.89397C-0.292082 3.71699 -0.267307 5.32146 0.865523 6.11254L2.94723 7.5663C2.83398 8.48625 3.16583 9.39592 3.83165 10.0481C3.85581 10.0756 3.88172 10.1007 3.90931 10.1236L4.64805 10.829H2.17511C1.01177 10.829 0.0653448 11.7334 0.0653448 12.845C0.0653448 13.7535 0.697646 14.5233 1.56373 14.7744L2.69205 21.2853C2.86232 22.2614 3.73749 22.9698 4.7731 22.9698H19.3619C20.3975 22.9698 21.2727 22.2614 21.4431 21.2846L22.5713 14.7745C23.4374 14.5233 24.0697 13.7536 24.0697 12.8451C24.0697 12.0414 23.5749 11.3462 22.861 11.0226C23.6393 9.9981 24.0697 8.75601 24.0697 7.46909V3.43703ZM14.1773 7.47043C14.7844 7.03999 15.5542 6.79701 16.334 6.79701C18.2728 6.79701 19.8502 8.30432 19.8502 10.157C19.8502 10.3845 19.826 10.6091 19.7794 10.829H14.1773V7.47043ZM11.3643 2.04823H11.3643C11.3643 1.67767 11.6798 1.37624 12.0675 1.37624C12.4553 1.37624 12.7708 1.67771 12.7708 2.04823V10.829H11.3643V2.04823ZM3.44851 6.25166L1.69546 5.0274C1.31805 4.76385 1.30936 4.22905 1.67844 3.95454L1.87189 3.81069L3.64835 5.99174C3.57685 6.07512 3.51019 6.16186 3.44851 6.25166ZM2.98187 2.98521L3.17528 2.84137C3.54418 2.56708 4.08462 2.70589 4.2595 3.12047L5.0711 5.04492C4.96486 5.08001 4.86044 5.12044 4.75833 5.16626L2.98187 2.98521ZM4.50946 8.66149C4.14409 7.93834 4.35676 7.07198 5.01849 6.57981C5.8631 5.95163 7.09404 6.17372 7.64125 7.0519C7.64229 7.05356 7.64332 7.05522 7.6444 7.05688L9.95782 10.6977V10.829H6.63775L5.43248 9.67803L6.7462 8.70098C7.05272 8.47305 7.10777 8.05078 6.86928 7.75794C6.6307 7.46504 6.18879 7.41244 5.88237 7.64033L4.50946 8.66149ZM20.0557 21.0643C19.9989 21.3897 19.7072 21.6258 19.362 21.6258H4.7731C4.42789 21.6258 4.13619 21.3897 4.07954 21.065L3.00439 14.861H21.1307L20.0557 21.0643ZM21.96 13.517H2.17511C1.78732 13.517 1.47187 13.2155 1.47187 12.845C1.47187 12.4745 1.78737 12.173 2.17511 12.173C3.40211 12.173 20.8207 12.173 21.96 12.173C22.3478 12.173 22.6632 12.4745 22.6632 12.845C22.6632 13.2155 22.3478 13.517 21.96 13.517ZM21.2094 10.8062C21.2403 10.5921 21.2567 10.3754 21.2567 10.157C21.2567 8.57875 20.4391 7.17957 19.1873 6.32587C19.9548 5.1522 21.233 4.35618 22.6633 4.15758V7.469C22.6633 8.72461 22.1366 9.9255 21.2094 10.8062Z" fill="#9B5900"/>
<path d="M16.3336 9.48432C16.722 9.48432 17.0369 9.18346 17.0369 8.81234C17.0369 8.44121 16.722 8.14035 16.3336 8.14035C15.9452 8.14035 15.6304 8.44121 15.6304 8.81234C15.6304 9.18346 15.9452 9.48432 16.3336 9.48432Z" fill="#9B5900"/>
<path d="M6.39465 16.2039C6.00624 16.2039 5.69141 16.5048 5.69141 16.8759V19.6087C5.69141 19.9798 6.00629 20.2807 6.39465 20.2807C6.78301 20.2807 7.09789 19.9798 7.09789 19.6087V16.8759C7.09789 16.5048 6.78301 16.2039 6.39465 16.2039Z" fill="#9B5900"/>
</g>
<defs>
<clipPath id="clip0">
<rect width="24.0698" height="23" fill="white"/>
</clipPath>
</defs>
</svg>
