<svg width="36" height="36" viewBox="0 0 36 36" fill="none" xmlns="http://www.w3.org/2000/svg">
<rect width="36" height="36" fill="white"/>
<path d="M28.0201 22.4147H29.0748V23.4694H28.0201V22.4147Z" fill="#9B5900"/>
<path d="M6.92639 22.4147H7.98108V23.4694H6.92639V22.4147Z" fill="#9B5900"/>
<path d="M11.918 22.942C11.918 26.2957 14.6464 29.0241 18 29.0241C21.3536 29.0241 24.082 26.2957 24.082 22.942C24.082 19.5884 21.3536 16.86 18 16.86C14.6464 16.86 11.918 19.5884 11.918 22.942ZM23.0273 22.942C23.0273 25.7141 20.7721 27.9694 18 27.9694C15.2279 27.9694 12.9727 25.7141 12.9727 22.942C12.9727 20.17 15.2279 17.9147 18 17.9147C20.7721 17.9147 23.0273 20.17 23.0273 22.942Z" fill="#9B5900"/>
<path d="M17.4727 18.8271V19.2098C16.5337 19.4458 15.8363 20.297 15.8363 21.3083V21.5724C15.8363 22.5299 16.5497 23.3236 17.4727 23.451V25.5511C17.1278 25.3638 16.891 25.0042 16.891 24.5566H15.8363C15.8363 25.6041 16.5445 26.4407 17.4727 26.6741V27.0567H18.5274V26.6741C19.4664 26.4381 20.1637 25.5869 20.1637 24.5757V24.3115C20.1637 23.3539 19.4504 22.5603 18.5274 22.433V20.3329C18.8722 20.5201 19.1091 20.8798 19.1091 21.3273H20.1637C20.1637 20.2798 19.4555 19.4432 18.5274 19.2099V18.8272H17.4727V18.8271ZM17.4727 22.3729C17.1355 22.2629 16.891 21.9459 16.891 21.5724V21.3083C16.891 20.8875 17.1265 20.5208 17.4727 20.3328V22.3729ZM19.1091 24.3115V24.5757C19.1091 24.9964 18.8735 25.3632 18.5274 25.5511V23.511C18.8646 23.621 19.1091 23.938 19.1091 24.3115Z" fill="#9B5900"/>
<path d="M0 12.5005V33.3833H5.87039V32.3286H1.05469V13.5552H34.9453V32.3286H6.92508V33.3833H36V12.5005H0Z" fill="#9B5900"/>
<path d="M4.64597 31.2739H31.354L31.2986 30.6962C31.1823 29.4816 32.1422 28.4263 33.3633 28.4263H33.8906V17.4575H33.3633C32.2195 17.4575 31.2891 16.527 31.2891 15.3833C31.2891 15.2599 31.2933 15.2432 31.354 14.6099H25.8905V15.6646H30.2469C30.3739 17.083 31.4513 18.2318 32.8359 18.4678V27.4161C31.4513 27.652 30.3738 28.8009 30.2469 30.2193H5.75311C5.6262 28.8009 4.54873 27.652 3.16406 27.4161V18.4678C4.54873 18.2319 5.6262 17.083 5.75311 15.6646H24.8358V14.6099H4.64597L4.70138 15.1876C4.81774 16.4022 3.85784 17.4575 2.63672 17.4575H2.10938V28.4263H2.63672C3.78049 28.4263 4.71094 29.3568 4.71094 30.5005C4.71094 30.6239 4.70672 30.6406 4.64597 31.2739Z" fill="#9B5900"/>
<path d="M26.1148 7.33992L25.8651 6.81567L19.7838 10.4663L20.3267 11.3705L25.4585 8.28992C26.3021 9.45036 27.8213 9.87083 29.1211 9.36197L30.2182 11.1899L31.1225 10.6471L29.5053 7.95263L29.0531 8.22404C27.996 8.85861 26.6346 8.43272 26.1148 7.33992Z" fill="#9B5900"/>
<path d="M33.5828 10.6472L28.7628 2.6167L15.6846 10.4664L16.2274 11.3707L28.4013 4.0638L32.6785 11.1899L33.5828 10.6472Z" fill="#9B5900"/>
</svg>
