<svg width="36" height="36" viewBox="0 0 36 36" fill="none" xmlns="http://www.w3.org/2000/svg">
<rect width="36" height="36" fill="white"/>
<path d="M18 0C11.0213 0 5.34375 5.67759 5.34375 12.6562C5.34375 15.0141 5.99688 17.3152 7.23298 19.3115L17.2796 35.5014C17.472 35.8116 17.8111 36 18.1757 36C18.1785 36 18.1813 36 18.1841 36C18.5519 35.9971 18.8916 35.8028 19.0806 35.4873L28.8711 19.1405C30.039 17.1863 30.6562 14.9441 30.6562 12.6562C30.6562 5.67759 24.9787 0 18 0ZM27.0609 18.0575L18.1597 32.9193L9.0258 18.2001C7.99692 16.5385 7.43906 14.6215 7.43906 12.6562C7.43906 6.8407 12.1845 2.09531 18 2.09531C23.8155 2.09531 28.5539 6.8407 28.5539 12.6562C28.5539 14.5632 28.0328 16.4312 27.0609 18.0575Z" fill="#9B5900"/>
<path d="M18 6.32812C14.5107 6.32812 11.6719 9.16692 11.6719 12.6562C11.6719 16.1233 14.4645 18.9844 18 18.9844C21.5791 18.9844 24.3281 16.0852 24.3281 12.6562C24.3281 9.16692 21.4893 6.32812 18 6.32812ZM18 16.8891C15.6616 16.8891 13.7672 14.9883 13.7672 12.6562C13.7672 10.33 15.6738 8.42344 18 8.42344C20.3262 8.42344 22.2258 10.33 22.2258 12.6562C22.2258 14.9543 20.3754 16.8891 18 16.8891Z" fill="#9B5900"/>
</svg>
