<svg width="39" height="36" viewBox="0 0 39 36" fill="none" xmlns="http://www.w3.org/2000/svg">
<g clip-path="url(#clip0)">
<rect width="38.1176" height="36" fill="white"/>
<path d="M37.8145 12.9261C37.3912 11.0556 36.55 9.37318 35.3171 7.92924L35.3077 7.91827C35.0513 7.61663 34.5847 7.56699 34.2638 7.80809C33.9419 8.04982 33.8885 8.49216 34.1443 8.79605L34.1549 8.80821C35.243 10.0827 35.9843 11.5671 36.3584 13.22C36.736 14.8885 36.7178 16.6472 36.3042 18.4472C35.5238 21.8444 33.4041 25.0266 30.3358 27.4077C27.2559 29.7979 23.5642 31.1142 19.941 31.1142C18.071 31.1142 16.3199 30.7667 14.736 30.0815C13.1731 29.4051 11.8433 28.4329 10.7836 27.1917C9.72059 25.9465 8.98943 24.5006 8.60751 22.8934H10.1324C10.4765 24.147 11.0831 25.3021 11.9427 26.3091C13.8139 28.5008 16.6544 29.708 19.941 29.708C20.0895 29.708 20.2382 29.7047 20.387 29.6997C20.4232 29.7047 20.4592 29.7081 20.4949 29.7081C20.5554 29.7081 20.6147 29.7007 20.672 29.6874C23.7154 29.5233 26.7852 28.3431 29.3905 26.3212C32.2009 24.1401 34.1394 21.2379 34.849 18.149C34.8493 18.1478 34.8495 18.1466 34.8497 18.1454C34.8503 18.1429 34.8509 18.1404 34.8514 18.1378C35.5812 14.9473 34.9224 11.9477 32.9957 9.69078C31.1269 7.50188 28.2914 6.29524 25.0102 6.29208C25.007 6.29201 25.0037 6.29201 25.0004 6.29194C24.9994 6.29194 24.9985 6.29194 24.9974 6.29194C21.7181 6.29194 18.3621 7.49471 15.5479 9.67868C12.7375 11.8597 10.799 14.7619 10.0893 17.8508C10.089 17.8522 10.0887 17.8536 10.0884 17.8551C10.088 17.8572 10.0875 17.8593 10.0871 17.8614C9.80129 19.1105 9.72922 20.3299 9.86182 21.4872H8.36882C8.2378 20.2121 8.32617 18.8939 8.63431 17.5527C9.41475 14.1556 11.5343 10.9734 14.6026 8.59221C17.6826 6.20201 21.3742 4.88569 24.9974 4.88569C26.4671 4.88569 27.8736 5.10275 29.1776 5.53088C29.566 5.6585 29.9903 5.46436 30.1253 5.09754C30.2603 4.73072 30.055 4.33001 29.6666 4.20253C28.2048 3.72272 26.634 3.47937 24.9974 3.47937C21.2608 3.47937 17.471 4.7483 14.2476 7.06531H4.98804C4.57686 7.06531 4.24355 7.3801 4.24355 7.76843C4.24355 8.15677 4.57686 8.47156 4.98804 8.47156H12.5061C9.80054 10.9212 7.92831 13.9936 7.17921 17.2544C6.84888 18.6921 6.74808 20.1097 6.87449 21.4872H4.09086C3.67968 21.4872 3.34637 21.802 3.34637 22.1903C3.34637 22.5786 3.67968 22.8934 4.09086 22.8934H7.086C7.09866 22.9535 7.11049 23.0138 7.12404 23.0737C7.54728 24.9442 8.38863 26.6266 9.62462 28.0744C10.8303 29.4866 12.3414 30.5921 14.1159 31.36C15.8957 32.13 17.8556 32.5205 19.941 32.5205C23.9082 32.5205 27.9355 31.0906 31.2812 28.4942C34.6075 25.9129 36.9081 22.4507 37.7594 18.7453C38.2179 16.749 38.2366 14.7911 37.8145 12.9261ZM11.433 18.7031H12.2703C12.6815 18.7031 13.0148 18.3883 13.0148 18C13.0148 17.6116 12.6815 17.2968 12.2703 17.2968H11.7774C12.5539 14.8359 14.2034 12.5423 16.4932 10.7652C18.7727 8.99616 21.4296 7.9388 24.0657 7.7351L23.9546 8.21857C23.8675 8.59805 24.1225 8.97246 24.5243 9.0548C24.5775 9.0657 24.6306 9.0709 24.6829 9.0709C25.0257 9.0709 25.3341 8.84597 25.4097 8.5167L25.5941 7.71415C28.1657 7.84817 30.3662 8.8511 31.8366 10.5735C33.3675 12.3668 33.9511 14.7368 33.5055 17.2968H32.6682C32.2571 17.2968 31.9237 17.6116 31.9237 18C31.9237 18.3883 32.2571 18.7031 32.6682 18.7031H33.1611C32.3846 21.164 30.7352 23.4576 28.4452 25.2347C26.3289 26.8771 23.8873 27.906 21.439 28.208L21.5371 27.7813C21.6242 27.4019 21.3692 27.0274 20.9675 26.9451C20.5656 26.8625 20.1691 27.1036 20.082 27.4831L19.894 28.3012C17.0868 28.2899 14.676 27.2703 13.1018 25.4264C12.4596 24.6742 11.9849 23.8201 11.682 22.8935H14.8577C15.2689 22.8935 15.6022 22.5787 15.6022 22.1904C15.6022 21.802 15.2689 21.4872 14.8577 21.4872H11.3626C11.2438 20.5996 11.2655 19.6649 11.433 18.7031Z" fill="#9B5900"/>
<path d="M19.503 21.0054C19.6693 21.0054 19.8366 20.953 19.9752 20.8455L22.9419 18.5432C23.0715 18.4427 23.1613 18.3038 23.1969 18.149L24.6905 11.6472C24.7777 11.2677 24.5226 10.8933 24.1208 10.811C23.7192 10.7285 23.3226 10.9695 23.2354 11.349L21.7966 17.6119L19.03 19.759C18.7123 20.0055 18.6664 20.4486 18.9275 20.7486C19.0746 20.9178 19.2879 21.0054 19.503 21.0054Z" fill="#9B5900"/>
<path d="M0.744485 14.5264H5.82709C6.23827 14.5264 6.57157 14.2116 6.57157 13.8232C6.57157 13.4349 6.23827 13.1201 5.82709 13.1201H0.744485C0.333306 13.1201 0 13.4349 0 13.8232C0 14.2116 0.333306 14.5264 0.744485 14.5264Z" fill="#9B5900"/>
<path d="M6.57904 27.8857H2.70378C2.2926 27.8857 1.95929 28.2005 1.95929 28.5889C1.95929 28.9772 2.2926 29.292 2.70378 29.292H6.57904C6.99022 29.292 7.32353 28.9772 7.32353 28.5889C7.32353 28.2005 6.99022 27.8857 6.57904 27.8857Z" fill="#9B5900"/>
<path d="M1.43166 21.9213C1.17548 21.3404 0.271226 21.3608 0.0440834 21.9533C-0.0634947 22.234 0.0365641 22.5616 0.286637 22.7445C0.529116 22.9218 0.867707 22.941 1.13021 22.7913C1.44029 22.6144 1.5711 22.2372 1.43166 21.9213Z" fill="#9B5900"/>
<path d="M31.7277 6.5967C31.8835 6.95002 32.3249 7.12411 32.7 6.97709C33.075 6.83014 33.2576 6.41297 33.1028 6.05881C32.948 5.70493 32.505 5.53161 32.1305 5.67842C31.7549 5.82565 31.5737 6.24197 31.7277 6.5967Z" fill="#9B5900"/>
</g>
<defs>
<clipPath id="clip0">
<rect width="38.1176" height="36" fill="white"/>
</clipPath>
</defs>
</svg>
