<svg width="31" height="30" viewBox="0 0 31 30" fill="none" xmlns="http://www.w3.org/2000/svg">
<g clip-path="url(#clip0)">
<path d="M26.4274 0H3.91172C1.84154 0 0.159119 1.68125 0.159119 3.75V26.25C0.159119 28.3175 1.84154 30 3.91172 30H26.4274C28.4963 30 30.18 28.3175 30.18 26.25V3.75C30.18 1.68125 28.4963 0 26.4274 0Z" fill="#3B5999"/>
<path d="M20.7984 15V11.25C20.7984 10.215 21.639 10.3125 22.6747 10.3125H24.5511V5.625H20.7984C17.6888 5.625 15.1695 8.1425 15.1695 11.25V15H11.4169V19.6875H15.1695V30H20.7984V19.6875H23.6129L25.4892 15H20.7984Z" fill="white"/>
</g>
<defs>
<clipPath id="clip0">
<rect x="0.159119" width="30.0208" height="30" rx="10" fill="white"/>
</clipPath>
</defs>
</svg>
