<svg width="31" height="30" viewBox="0 0 31 30" fill="none" xmlns="http://www.w3.org/2000/svg">
<g clip-path="url(#clip0)">
<path d="M30.1238 8.81561C30.0507 7.21893 29.7969 6.12854 29.4259 5.17456C29.0491 4.17366 28.4582 3.26706 27.6946 2.5177C26.9449 1.75461 26.0375 1.16386 25.0359 0.787125C24.081 0.416565 22.9901 0.163193 21.3923 0.0906372C19.7915 0.017395 19.2801 0 15.2036 0C11.1271 0 10.6157 0.017395 9.01492 0.0901794C7.41713 0.163193 6.3262 0.416794 5.37133 0.787582C4.36974 1.16409 3.46251 1.75461 2.71263 2.5177C1.949 3.26683 1.35785 4.17343 0.980848 5.17433C0.610031 6.12854 0.356482 7.21893 0.283876 8.81538C0.210583 10.4153 0.193176 10.9261 0.193176 14.9998C0.193176 19.0736 0.210583 19.5847 0.283876 21.1844C0.356711 22.7808 0.610489 23.8712 0.981535 24.8254C1.35831 25.8261 1.94923 26.7329 2.71286 27.4821C3.46251 28.2452 4.36997 28.8357 5.37156 29.2122C6.3262 29.5832 7.41736 29.8366 9.01514 29.9096C10.6161 29.9826 11.1274 29.9998 15.2038 29.9998C19.2803 29.9998 19.7917 29.9826 21.3925 29.9096C22.9903 29.8366 24.0812 29.5832 25.0361 29.2122C27.0523 28.4331 28.6462 26.8403 29.4259 24.8254C29.7972 23.8712 30.0507 22.7808 30.1238 21.1844C30.1966 19.5845 30.214 19.0736 30.214 15C30.214 10.9261 30.1966 10.4153 30.1238 8.81561ZM27.4218 21.0615C27.3551 22.524 27.1105 23.3183 26.9051 23.8467C26.4 25.155 25.3655 26.1889 24.0563 26.6936C23.5274 26.8989 22.7326 27.1433 21.2691 27.2099C19.6866 27.2823 19.2118 27.2974 15.2036 27.2974C11.1952 27.2974 10.7206 27.2823 9.13791 27.2099C7.67457 27.1433 6.8798 26.8989 6.35071 26.6936C5.69886 26.453 5.10908 26.0696 4.62489 25.5714C4.12627 25.0875 3.74262 24.4984 3.5019 23.8467C3.29645 23.3183 3.05184 22.524 2.98518 21.0615C2.91304 19.4799 2.89769 19.0054 2.89769 15.0002C2.89769 10.9948 2.91304 10.5206 2.98518 8.93875C3.05206 7.4762 3.29645 6.68198 3.5019 6.15349C3.74262 5.50186 4.1265 4.91249 4.62489 4.42863C5.10908 3.93036 5.69886 3.54698 6.35094 3.30666C6.8798 3.10112 7.67457 2.8569 9.13814 2.79007C10.7208 2.71797 11.1956 2.70264 15.2036 2.70264H15.2034C19.2114 2.70264 19.6862 2.71797 21.2691 2.7903C22.7326 2.8569 23.5272 3.10135 24.0563 3.30666C24.7081 3.54721 25.2979 3.93059 25.7821 4.42863C26.2807 4.91249 26.6643 5.50186 26.9048 6.15349C27.1105 6.68198 27.3551 7.4762 27.4218 8.93875C27.4939 10.5203 27.5093 10.9948 27.5093 15C27.5093 19.0054 27.4942 19.4797 27.4218 21.0615Z" fill="url(#paint0_linear)"/>
<path d="M15.2034 7.29712C10.9464 7.29712 7.49545 10.7459 7.49545 14.9999C7.49545 19.2539 10.9464 22.7025 15.2034 22.7025C19.4605 22.7025 22.9115 19.2539 22.9115 14.9999C22.9115 10.7459 19.4605 7.29712 15.2034 7.29712ZM15.2034 19.9998C12.4402 19.9996 10.2 17.7611 10.2002 14.9997C10.2002 12.2384 12.4402 9.99976 15.2036 9.99976C17.967 9.99998 20.207 12.2384 20.207 14.9997C20.207 17.7611 17.9667 19.9998 15.2034 19.9998Z" fill="url(#paint1_linear)"/>
<path d="M25.0173 6.99303C25.0173 7.98706 24.2109 8.79295 23.2161 8.79295C22.2212 8.79295 21.4147 7.98706 21.4147 6.99303C21.4147 5.99876 22.2212 5.19287 23.2161 5.19287C24.2109 5.19287 25.0173 5.99876 25.0173 6.99303Z" fill="url(#paint2_linear)"/>
</g>
<defs>
<linearGradient id="paint0_linear" x1="2.71247" y1="27.4822" x2="27.6774" y2="2.49996" gradientUnits="userSpaceOnUse">
<stop stop-color="#FFD600"/>
<stop offset="0.5" stop-color="#FF0100"/>
<stop offset="1" stop-color="#D800B9"/>
</linearGradient>
<linearGradient id="paint1_linear" x1="9.75311" y1="20.4464" x2="20.6463" y2="9.54564" gradientUnits="userSpaceOnUse">
<stop stop-color="#FF6400"/>
<stop offset="0.5" stop-color="#FF0100"/>
<stop offset="1" stop-color="#FD0056"/>
</linearGradient>
<linearGradient id="paint2_linear" x1="21.9424" y1="8.26568" x2="24.4879" y2="5.71839" gradientUnits="userSpaceOnUse">
<stop stop-color="#F30072"/>
<stop offset="1" stop-color="#E50097"/>
</linearGradient>
<clipPath id="clip0">
<rect width="30.0208" height="30" fill="white" transform="translate(0.193176)"/>
</clipPath>
</defs>
</svg>
