<svg width="31" height="30" viewBox="0 0 31 30" fill="none" xmlns="http://www.w3.org/2000/svg">
<g clip-path="url(#clip0)">
<path d="M30.214 0H0.193176V30H30.214V0Z" fill="#50ABF1"/>
<path d="M4.17044 22.2383C6.1684 23.5046 8.53842 24.2374 11.079 24.2374C18.2164 24.2374 24.0022 18.4549 24.0022 11.3232C24.0022 11.1451 23.9984 10.9684 23.9915 10.7921C24.2497 10.5891 25.8464 9.31028 26.2377 8.48815C26.2377 8.48815 24.9411 9.02662 23.6721 9.15348C23.6696 9.15348 23.6665 9.15407 23.664 9.15407C23.664 9.15407 23.6665 9.15282 23.6709 9.14972C23.7878 9.07165 25.4225 7.95961 25.6439 6.63462C25.6439 6.63462 24.7268 7.12379 23.4427 7.55174C23.2301 7.62231 23.0076 7.69169 22.7782 7.75601C21.9504 6.87325 20.7739 6.32227 19.468 6.32227C16.963 6.32227 14.9331 8.35011 14.9331 10.8515C14.9331 11.2044 14.9738 11.548 15.0507 11.8778C14.7006 11.8635 9.36988 11.5648 5.74338 7.17619C5.74338 7.17619 3.57599 10.133 7.03497 13.1735C7.03497 13.1735 5.98349 13.1316 5.07634 12.59C5.07634 12.59 4.74315 16.1721 8.66035 17.088C8.66035 17.088 7.88956 17.3797 6.65989 17.1717C6.65989 17.1717 7.34755 20.066 10.8278 20.3365C10.8278 20.3365 8.07578 22.8209 4.16919 22.238L4.17044 22.2383Z" fill="white"/>
</g>
<defs>
<clipPath id="clip0">
<rect x="0.193176" width="30.0208" height="30" rx="10" fill="white"/>
</clipPath>
</defs>
</svg>
