<svg width="31" height="30" viewBox="0 0 31 30" fill="none" xmlns="http://www.w3.org/2000/svg">
<g clip-path="url(#clip0)">
<path d="M30.18 0H0.159119V30H30.18V0Z" fill="#44678D"/>
<path d="M7.93619 9.12973C8.65567 10.9053 9.56749 12.5793 10.7684 14.0821C10.9277 14.282 11.1285 14.4598 11.34 14.6046C11.649 14.8166 11.9405 14.7421 12.0661 14.389C12.199 14.0183 12.3209 13.2672 12.3281 12.8781C12.348 11.8611 12.3252 11.1947 12.2705 10.179C12.2351 9.52852 12.0036 8.95733 11.0461 8.78492C10.7504 8.73147 10.7229 8.48823 10.9129 8.24559C11.3084 7.74043 11.8594 7.65992 12.4569 7.62806C13.4252 7.57579 14.3971 7.61845 15.3667 7.62806C15.7616 7.63168 16.1589 7.66347 16.5478 7.74819C17.0551 7.85872 17.3267 8.21432 17.4103 8.70922C17.4536 8.9645 17.4759 9.22696 17.4698 9.48527C17.4446 10.5953 17.3911 11.7047 17.3784 12.8141C17.373 13.2495 17.4049 13.6958 17.4981 14.1199C17.6285 14.7109 18.0312 14.8593 18.443 14.4323C18.9659 13.8899 19.4269 13.2796 19.8597 12.6598C20.6459 11.5323 21.2331 10.295 21.7386 9.01927C22 8.36099 22.2002 8.21801 22.9088 8.21623C24.2408 8.2132 25.5728 8.21202 26.9048 8.21623C27.141 8.21742 27.388 8.23967 27.611 8.31056C27.9728 8.4259 28.1165 8.72081 28.0317 9.09504C27.834 9.972 27.3598 10.7174 26.8519 11.434C26.0368 12.5836 25.1827 13.7057 24.3484 14.842C24.2421 14.9868 24.1483 15.1412 24.0611 15.2979C23.7491 15.8613 23.7708 16.1772 24.2258 16.6463C24.9501 17.393 25.7255 18.0915 26.4269 18.8585C26.9366 19.4165 27.4084 20.0219 27.8124 20.6592C28.3233 21.4653 28.0077 22.2245 27.0532 22.3596C26.4528 22.4444 23.5197 22.3603 23.3681 22.3596C22.5795 22.3561 21.8883 22.0828 21.3317 21.5476C20.7126 20.9518 20.15 20.2982 19.5555 19.6765C19.3764 19.4891 19.1852 19.3096 18.9791 19.1528C18.4928 18.7821 18.0156 18.8644 17.7884 19.4351C17.5942 19.9252 17.4265 21.2124 17.4187 21.3223C17.3779 21.8971 17.0118 22.2635 16.3674 22.2989C14.5071 22.3999 12.7045 22.1926 11.0252 21.2935C9.60181 20.5319 8.46522 19.4549 7.48067 18.199C5.91669 16.2041 4.68135 14.0113 3.55352 11.7541C3.49588 11.6387 2.35356 9.20965 2.32286 9.09491C2.22082 8.71073 2.31601 8.34374 2.64084 8.21742C2.84333 8.13869 6.60962 8.21715 6.67226 8.22051C7.27323 8.25303 7.68304 8.5064 7.93619 9.12973Z" fill="white"/>
</g>
<defs>
<clipPath id="clip0">
<rect x="0.159119" width="30.0208" height="30" rx="10" fill="white"/>
</clipPath>
</defs>
</svg>
