<svg width="140" height="120" viewBox="0 0 140 120" fill="none" xmlns="http://www.w3.org/2000/svg">
<path d="M2.44141 43V25.8203H5.27734V32.582H10.8555V25.8203H13.7031V43H10.8555V35.4883H5.27734V43H2.44141ZM16.0703 34.5156C16.0703 32.4688 16.3711 30.7852 16.9727 29.4648C17.582 28.1367 18.375 27.1484 19.3516 26.5C20.3281 25.8516 21.5117 25.5273 22.9023 25.5273C24.918 25.5273 26.5586 26.2969 27.8242 27.8359C29.0977 29.375 29.7344 31.5664 29.7344 34.4102C29.7344 37.2852 29.0625 39.5312 27.7188 41.1484C26.5391 42.5781 24.9375 43.293 22.9141 43.293C20.875 43.293 19.2656 42.5859 18.0859 41.1719C16.7422 39.5547 16.0703 37.3359 16.0703 34.5156ZM19 34.3984C19 36.375 19.375 37.8594 20.125 38.8516C20.875 39.8359 21.8047 40.3281 22.9141 40.3281C24.0312 40.3281 24.957 39.8398 25.6914 38.8633C26.4258 37.8789 26.793 36.3711 26.793 34.3398C26.793 32.3477 26.4336 30.875 25.7148 29.9219C25.0039 28.9688 24.0703 28.4922 22.9141 28.4922C21.7578 28.4922 20.8164 28.9727 20.0898 29.9336C19.3633 30.8945 19 32.3828 19 34.3984ZM31.9258 43V25.8203H36.1797L38.7344 37.5391L41.2656 25.8203H45.5312V43H42.8945V29.4766L40.0938 43H37.3516L34.5742 29.4766V43H31.9258ZM48.3789 43V25.8203H58.832V28.7266H51.2148V32.5352H58.293V35.4297H51.2148V40.1055H59.0898V43H48.3789ZM2.39453 71V53.8203H6.64844L9.20312 65.5391L11.7344 53.8203H16V71H13.3633V57.4766L10.5625 71H7.82031L5.04297 57.4766V71H2.39453ZM31.5391 71H28.4453L27.2148 67.0977H21.5898L20.4297 71H17.4062L22.8906 53.8203H25.9023L31.5391 71ZM26.3008 64.2031L24.3672 57.8281L22.457 64.2031H26.3008ZM33.0273 53.8203H38.2188C39.5312 53.8203 40.5195 53.9688 41.1836 54.2656C41.8555 54.5547 42.4727 55.0469 43.0352 55.7422C43.5977 56.4375 44.0391 57.3398 44.3594 58.4492C44.6797 59.5586 44.8398 60.9375 44.8398 62.5859C44.8398 64.0703 44.6719 65.3633 44.3359 66.4648C44 67.5586 43.5742 68.4258 43.0586 69.0664C42.543 69.707 41.918 70.1914 41.1836 70.5195C40.457 70.8398 39.5195 71 38.3711 71H33.0273V53.8203ZM35.8633 56.7266V68.1055H37.9961C38.9102 68.1055 39.5703 68.0195 39.9766 67.8477C40.3906 67.6758 40.7266 67.418 40.9844 67.0742C41.25 66.7227 41.4688 66.1719 41.6406 65.4219C41.8125 64.6719 41.8984 63.6836 41.8984 62.457C41.8984 61.1836 41.8086 60.1797 41.6289 59.4453C41.457 58.7109 41.1836 58.1328 40.8086 57.7109C40.4414 57.2891 39.9922 57.0117 39.4609 56.8789C39.0625 56.7773 38.293 56.7266 37.1523 56.7266H35.8633ZM47.2539 71V53.8203H57.707V56.7266H50.0898V60.5352H57.168V63.4297H50.0898V68.1055H57.9648V71H47.2539ZM2.42969 99V81.8203H7C8.70312 81.8203 9.81641 81.9023 10.3398 82.0664C11.1758 82.332 11.8633 82.8984 12.4023 83.7656C12.9492 84.6328 13.2227 85.75 13.2227 87.1172C13.2227 88.3594 12.9883 89.4023 12.5195 90.2461C12.0508 91.082 11.4648 91.6719 10.7617 92.0156C10.0586 92.3516 8.84766 92.5195 7.12891 92.5195H5.26562V99H2.42969ZM5.26562 84.7266V89.6016H6.83594C7.89062 89.6016 8.60547 89.5273 8.98047 89.3789C9.36328 89.2305 9.67578 88.9648 9.91797 88.582C10.1602 88.1914 10.2812 87.7148 10.2812 87.1523C10.2812 86.582 10.1562 86.1016 9.90625 85.7109C9.65625 85.3203 9.34766 85.0586 8.98047 84.9258C8.61328 84.793 7.83594 84.7266 6.64844 84.7266H5.26562ZM15.4727 99V81.8203H18.3086V99H15.4727ZM19.8203 99V95.8711L27.2266 84.7266H20.6523V81.8203H30.9648V84.5156L23.2539 96.1055H31.2695V99H19.8203ZM31.8438 99V95.8711L39.25 84.7266H32.6758V81.8203H42.9883V84.5156L35.2773 96.1055H43.293V99H31.8438ZM57.7891 99H54.6953L53.4648 95.0977H47.8398L46.6797 99H43.6562L49.1406 81.8203H52.1523L57.7891 99ZM52.5508 92.2031L50.6172 85.8281L48.707 92.2031H52.5508Z" fill="#9B5900"/>
<g clip-path="url(#clip0)">
<rect x="64" y="21" width="75" height="78" fill="white"/>
<path d="M64 99L84.463 91.2543L89.8545 84.364L98.9714 85.7624L113.461 80.2777L119.152 73.0877L127.051 75.1334C129.283 64.418 121.861 48.7461 112.486 42.9753L64 99Z" fill="#FEB158"/>
<path d="M86.9487 33.427L64 99L114.751 46.2188C107.585 38.7656 96.7637 32.7305 86.9487 33.427Z" fill="#FFD3A1"/>
<path d="M85.6677 81.3123C83.0753 84.0083 82.6741 88.1195 84.463 91.2543L98.9714 85.7624C98.7149 84.1331 97.9847 82.5688 96.7764 81.3125C93.7089 78.1221 88.7353 78.1219 85.6677 81.3123Z" fill="#E7001E"/>
<path d="M102.417 65.2572C104.724 62.8583 105.563 59.5128 104.939 56.423L96.5685 59.3397L93.9224 67.8808C96.8934 68.5291 100.11 67.6564 102.417 65.2572Z" fill="#E7001E"/>
<path d="M89.2646 51.5789C85.6327 55.3561 85.6327 61.48 89.2646 65.2572C90.5897 66.6353 92.2157 67.5083 93.9224 67.8807L104.939 56.423C104.581 54.648 103.742 52.957 102.417 51.5789C98.7849 47.8018 92.8965 47.8018 89.2646 51.5789Z" fill="#FF4F19"/>
<path d="M121.405 62.8724C118.808 62.9061 116.221 63.951 114.239 66.0121C110.489 69.9118 110.231 76.0652 113.461 80.2779L127.051 75.1335L128.697 67.1601L121.405 62.8724Z" fill="#E7001E"/>
<path d="M111.437 49.6653C118.604 57.1184 123.805 65.8398 127.051 75.1334L139 70.6103C135.139 59.5555 128.952 49.1813 120.427 40.3157L112.291 41.2617L111.437 49.6653Z" fill="#B45600"/>
<path d="M91.2978 21L86.9487 33.427C95.8848 36.8026 104.271 42.212 111.437 49.6653L120.427 40.3157C111.903 31.45 101.927 25.0153 91.2978 21Z" fill="#E47500"/>
</g>
<defs>
<clipPath id="clip0">
<rect x="64" y="21" width="75" height="78" fill="white"/>
</clipPath>
</defs>
</svg>
